<svg xmlns="http://www.w3.org/2000/svg" version="1.1" xmlns:xlink="http://www.w3.org/1999/xlink" xmlns:svgjs="http://svgjs.dev/svgjs" width="1000" height="712" viewBox="0 0 1000 712"><g transform="matrix(1,0,0,1,-0.6060606060606233,-0.3750249472077485)"><svg viewBox="0 0 396 282" data-background-color="#636365" preserveAspectRatio="xMidYMid meet" height="712" width="1000" xmlns="http://www.w3.org/2000/svg" xmlns:xlink="http://www.w3.org/1999/xlink"><g id="tight-bounds" transform="matrix(1,0,0,1,0.2400000000000091,24.54720155503108)"><svg viewBox="0 0 395.52 247.2" height="247.2" width="395.52"><g><svg></svg></g><g><svg viewBox="0 0 395.52 247.2" height="247.2" width="395.52"><g transform="matrix(1,0,0,1,73.58064905546563,37.08)"><svg viewBox="0 0 248.35870188906873 173.04" height="173.04" width="248.35870188906873"><g><svg viewBox="0 0 248.35870188906873 173.04" height="173.04" width="248.35870188906873"><g><svg viewBox="0 0 316.416 220.45784674964062" height="173.04" width="248.35870188906873"><g><svg viewBox="0 0 316.416 220.45784674964062" height="220.45784674964062" width="316.416"><g id="textblocktransform"><svg viewBox="0 0 316.416 220.45784674964062" height="220.45784674964062" width="316.416" id="textblock"><g><svg viewBox="0 0 316.416 140.31724585102276" height="140.31724585102276" width="316.416"><g transform="matrix(1,0,0,1,0,0)"><svg width="316.416" viewBox="-7.449999988079071 -46.099998474121094 130.5399932861328 58.44999694824219" height="140.31724585102276" data-palette-color="#1dc379"><path d="M33-37.45L33-37.7Q34.05-38.1 35.95-38.1 37.85-38.1 39.35-37.85L39.35-37.85Q37.8-26.35 36.93-17.03 36.05-7.7 35.98-7.2 35.9-6.7 35.9-6.3L35.9-6.3Q35.95-5 37.15-5L37.15-5Q40.15-5 45.5-11.9L45.5-11.9Q46.45-9.25 46.6-8.35L46.6-8.35Q44.2-4.55 40.83-2.13 37.45 0.3 34.45 0.3 31.45 0.3 30.3-1.25 29.15-2.8 29.15-4.7L29.15-4.7Q29.15-5.15 29.28-6.45 29.4-7.75 31.25-22.65L31.25-22.65 23.05-3.7 18.8-3.7 16.35-22.35 12.85-6.85Q12-3.15 10.08-1.4 8.15 0.35 5.85 0.35 3.55 0.35 2.1-1L2.1-1Q0.55-2.45 0.55-5.1L0.55-5.1Q0.55-10.4 8.75-14.15L8.75-14.15Q13.2-35.5 13.55-37.8L13.55-37.8Q14.75-38.1 16.78-38.1 18.8-38.1 19.55-38L19.55-38 19.9-38 23-14.75 33-37.45ZM4.1-5.95L4.1-5.95Q4.1-4.35 5.35-4.35L5.35-4.35Q6.2-4.35 6.75-5.7L6.75-5.7Q7.45-7.35 7.9-10.05L7.9-10.05Q4.1-7.9 4.1-5.95ZM40.5 4.35L41 0.05 68.5 0.05 67.95 4.35 40.5 4.35ZM101.5-37.45L101.5-37.7Q102.55-38.1 104.45-38.1 106.34-38.1 107.84-37.85L107.84-37.85Q106.3-26.35 105.42-17.03 104.55-7.7 104.47-7.2 104.4-6.7 104.4-6.3L104.4-6.3Q104.45-5 105.65-5L105.65-5Q108.65-5 114-11.9L114-11.9Q114.95-9.25 115.09-8.35L115.09-8.35Q112.7-4.55 109.32-2.13 105.95 0.3 102.95 0.3 99.95 0.3 98.8-1.25 97.65-2.8 97.65-4.7L97.65-4.7Q97.65-5.15 97.77-6.45 97.9-7.75 99.75-22.65L99.75-22.65 91.55-3.7 87.3-3.7 84.84-22.35 81.34-6.85Q80.5-3.15 78.57-1.4 76.65 0.35 74.34 0.35 72.05 0.35 70.59-1L70.59-1Q69.05-2.45 69.05-5.1L69.05-5.1Q69.05-10.4 77.25-14.15L77.25-14.15Q81.7-35.5 82.05-37.8L82.05-37.8Q83.25-38.1 85.27-38.1 87.3-38.1 88.05-38L88.05-38 88.4-38 91.5-14.75 101.5-37.45ZM72.59-5.95L72.59-5.95Q72.59-4.35 73.84-4.35L73.84-4.35Q74.7-4.35 75.25-5.7L75.25-5.7Q75.95-7.35 76.4-10.05L76.4-10.05Q72.59-7.9 72.59-5.95Z" opacity="1" transform="matrix(1,0,0,1,0,0)" fill="#1dc379" class="undefined-text-0" data-fill-palette-color="primary" id="text-0"></path></svg></g></svg></g><g transform="matrix(1,0,0,1,7.5,164.7938154573462)"><svg viewBox="0 0 301.416 55.664031292294425" height="55.664031292294425" width="301.416"><g transform="matrix(1,0,0,1,0,0)"><svg width="301.416" viewBox="-5.139999866485596 -44.040000915527344 329.280029296875 61.630001068115234" height="55.664031292294425" data-palette-color="#3d9970"><path d="M22.09 0L2.88-32.4 14.36-32.4 23.05-17.99 29.88-29.71 29.88-13.4 22.09 0ZM42.26 0L31.47 0 31.47-32.4 42.26-32.4 42.26 0ZM12.94 0L2.86 0 2.86-29.39 12.94-12.48 12.94 0ZM47.68 0L47.68-25.93 58.49-25.93 58.49 0 47.68 0ZM47.68-29.15L47.68-36.04 58.49-36.04 58.49-29.15 47.68-29.15ZM87.69-6.47L87.69 0 72.6 0 78.34-6.47 87.69-6.47ZM63.62-19.46L63.62-25.93 78.19-25.93 72.6-19.46 63.62-19.46ZM63.37 0L63.37-6.27 80.22-25.93 87.67-25.93 87.67-19.46 70.6 0 63.37 0ZM103-25.93L103 0 98.67 0 92.2-6.47 92.2-19.46 98.67-25.93 103-25.93ZM120.33-10.4L104.7-10.4 104.7-14.92 110.39-14.92 110.39-19.46 104.7-19.46 104.7-25.93 113.86-25.93 120.33-19.46 120.33-10.4ZM115.98 0L104.7 0 104.7-6.05 119.21-6.05 119.21-3.25 115.98 0ZM120.28 9.59L120.28 4.88 156.97 4.88 156.97 9.59 120.28 9.59ZM168.59 0L157.78 0 157.78-25.93 168.59-25.93 168.59 0ZM174.69 0L174.69-19.46 170.3-19.46 170.3-22.51 173.69-25.93 182.04-25.93 185.51-22.46 185.51 0 174.69 0ZM191.61 0L191.61-19.46 187.22-19.46 187.22-22.46 190.54-25.93 197.13-25.93 202.4-20.61 202.4 0 191.61 0ZM224.37-25.93L235.17-25.93 235.17 0 224.37 0 224.37-25.93ZM217.86-25.93L217.86-6.47 222.67-6.47 222.67-3.25 219.54 0 213.56 0 207.07-6.47 207.07-25.93 217.86-25.93ZM240.05-20.12L245.88-25.93 250.2-25.93 250.2-16.77 262.51-16.77 268.12-11.11 268.12-6.05 262.09 0 257.33 0 257.33-9.79 245.66-9.79 240.05-15.19 240.05-20.12ZM250.84-7.42L250.84-4.76 255.62-4.76 255.62 0 244.51-0.02 240.02-5.35 240.02-7.42 250.84-7.42ZM257.33-19.14L257.33-21.17 251.91-21.17 251.91-25.93 263.39-25.93 267.24-22.07 267.24-19.14 257.33-19.14ZM272.37 0L272.37-25.93 283.18-25.93 283.18 0 272.37 0ZM272.37-29.15L272.37-36.04 283.18-36.04 283.18-29.15 272.37-29.15ZM298.85-25.93L298.85 0 294.53 0 288.06-6.47 288.06-19.46 294.53-25.93 298.85-25.93ZM305.35-19.46L300.56-19.46 300.56-25.93 309.67-25.93 316.14-19.46 316.14-15.58 305.35-15.58 305.35-19.46ZM309.67 0L300.56 0 300.56-6.05 305.35-6.05 305.35-9.3 316.14-9.3 316.14-6.47 309.67 0Z" opacity="1" transform="matrix(1,0,0,1,0,0)" fill="#3d9970" class="undefined-text-1" data-fill-palette-color="secondary" id="text-1"></path></svg></g></svg></g></svg></g></svg></g></svg></g></svg></g></svg></g><g mask="url(#4d468524-12ec-4213-91d7-98b1d5fc6ef1)"><g transform="matrix(3.0026936822810746, 0, 0, 3.0026936822810746, 75.16002290873476, 1)"><svg xmlns="http://www.w3.org/2000/svg" data-name="Layer 1" viewBox="9.170002937316895 9.170000076293945 81.65999603271484 81.6600112915039" x="0" y="0" height="81.6600112915039" width="81.65999603271484" class="icon-none" data-fill-palette-color="accent" id="none"><path d="M39.23 36.9A8.82 8.82 0 1 0 48 45.72 8.83 8.83 0 0 0 39.23 36.9Zm0 15.64A6.82 6.82 0 1 1 46 45.72 6.83 6.83 0 0 1 39.23 52.54ZM56.79 15.92s0 0 0-0.06a1 1 0 0 0-0.09-0.18 1.13 1.13 0 0 0-0.4-0.38l-0.17-0.06-0.2 0H55.83l-0.13 0H55.56l-9.74 2.66a1 1 0 0 0-0.74 1v6.82a3.58 3.58 0 0 0-1.63-0.4 3.63 3.63 0 1 0 3.63 3.63V19.6l7.74-2.11V23a3.58 3.58 0 0 0-1.63-0.4 3.63 3.63 0 1 0 3.63 3.63v-10a1 1 0 0 0 0-0.13A0.93 0.93 0 0 0 56.79 15.92ZM43.46 30.5a1.63 1.63 0 1 1 1.63-1.63A1.63 1.63 0 0 1 43.46 30.5Zm9.74-2.66a1.63 1.63 0 1 1 1.63-1.63A1.63 1.63 0 0 1 53.2 27.85Zm27.21 22.5a0.93 0.93 0 0 0 0-0.13s0 0 0-0.06A1 1 0 0 0 80.27 50 0.7 0.7 0 0 0 80 49.69l-0.15-0.1-0.18-0.06-0.2 0H79.43l-0.13 0H79.17L66.7 52.92a1 1 0 0 0-0.74 1v9.2a4.36 4.36 0 1 0 2 3.66V54.64l10.47-2.85v7.89a4.36 4.36 0 1 0 2 3.66V50.48A1 1 0 0 0 80.41 50.35ZM63.6 69.1A2.36 2.36 0 1 1 66 66.74 2.37 2.37 0 0 1 63.6 69.1Zm12.47-3.4a2.37 2.37 0 1 1 2.37-2.37A2.37 2.37 0 0 1 76.07 65.7ZM50 9.17A40.83 40.83 0 1 0 90.83 50 40.88 40.88 0 0 0 50 9.17ZM57.81 88a38.8 38.8 0 0 1-23.57-2.57 7.77 7.77 0 0 1 0.57-5.36c2.18-4.2 0.85-8.77-3.76-12.87-6.87-6.11-13.89-17-11.08-27.5 1.15-4.34 3.5-8.42 5.78-12.36L26.54 26c0.83-1.46 1.84-3 3.29-3.35a2.44 2.44 0 0 1 2 0.56A2.41 2.41 0 0 1 32.78 25a6 6 0 0 1-0.84 2.5L30.58 30.3c-1 2-2 4.15-3.11 6.19-1.72 3.3-3.12 6.31-2.8 9.86A13.37 13.37 0 0 0 28 53.76c3.36 3.95 9 7.64 14.63 6.15 5.1-1.34 7.53-6.2 9.67-10.49 0.43-0.85 0.84-1.69 1.27-2.47l0.75-1.37q2.41-4.43 4.84-8.86A2.49 2.49 0 0 1 63.53 39L55 55.85c-0.5 0.77-5.13 8.32-0.89 15.89l1.11 2C58.36 79.13 59.69 81.48 57.81 88ZM60 87.51c1.65-6.6 0-9.49-3-14.81l-1.11-1.95C52.12 64 56.69 57 56.74 56.9l8.57-17a4.49 4.49 0 0 0-7.95-4.18l-4.84 8.86L51.78 46c-0.44 0.8-0.87 1.66-1.3 2.54-2 4.1-4.16 8.34-8.39 9.45-4.77 1.26-9.77-2.19-12.6-5.51a11.4 11.4 0 0 1-2.83-6.28c-0.27-3 1-5.75 2.58-8.76 1.08-2.06 2.12-4.18 3.13-6.23l1.36-2.74a7.78 7.78 0 0 0 1.05-3.38 4.59 4.59 0 0 0-5.37-4.38c-2.45 0.53-3.85 3-4.61 4.31L24 26.39c-2.34 4.06-4.77 8.26-6 12.85-3 11.4 4.39 23 11.68 29.51C32.44 71.17 35.23 75 33 79.2a9.39 9.39 0 0 0-1 5.22A38.82 38.82 0 1 1 60 87.51Z" fill="#e8eef1" data-fill-palette-color="accent"></path></svg></g></g><mask id="4d468524-12ec-4213-91d7-98b1d5fc6ef1"><rect width="640" height="400" fill="white"></rect><g transform="matrix(1,0,0,1,73.58064905546563,37.08)"><svg viewBox="0 0 248.35870188906873 173.04" height="173.04" width="248.35870188906873"><g><svg viewBox="0 0 248.35870188906873 173.04" height="173.04" width="248.35870188906873"><g><svg viewBox="0 0 316.416 220.45784674964062" height="173.04" width="248.35870188906873"><g><svg viewBox="0 0 316.416 220.45784674964062" height="220.45784674964062" width="316.416"><g id="SvgjsG1520"><svg viewBox="0 0 316.416 220.45784674964062" height="220.45784674964062" width="316.416" id="SvgjsSvg1519"><g><svg viewBox="0 0 316.416 140.31724585102276" height="140.31724585102276" width="316.416"><g transform="matrix(1,0,0,1,0,0)"><svg width="316.416" viewBox="-7.449999988079071 -46.099998474121094 130.5399932861328 58.44999694824219" height="140.31724585102276" data-palette-color="#1dc379"><path d="M33-37.45L33-37.7Q34.05-38.1 35.95-38.1 37.85-38.1 39.35-37.85L39.35-37.85Q37.8-26.35 36.93-17.03 36.05-7.7 35.98-7.2 35.9-6.7 35.9-6.3L35.9-6.3Q35.95-5 37.15-5L37.15-5Q40.15-5 45.5-11.9L45.5-11.9Q46.45-9.25 46.6-8.35L46.6-8.35Q44.2-4.55 40.83-2.13 37.45 0.3 34.45 0.3 31.45 0.3 30.3-1.25 29.15-2.8 29.15-4.7L29.15-4.7Q29.15-5.15 29.28-6.45 29.4-7.75 31.25-22.65L31.25-22.65 23.05-3.7 18.8-3.7 16.35-22.35 12.85-6.85Q12-3.15 10.08-1.4 8.15 0.35 5.85 0.35 3.55 0.35 2.1-1L2.1-1Q0.55-2.45 0.55-5.1L0.55-5.1Q0.55-10.4 8.75-14.15L8.75-14.15Q13.2-35.5 13.55-37.8L13.55-37.8Q14.75-38.1 16.78-38.1 18.8-38.1 19.55-38L19.55-38 19.9-38 23-14.75 33-37.45ZM4.1-5.95L4.1-5.95Q4.1-4.35 5.35-4.35L5.35-4.35Q6.2-4.35 6.75-5.7L6.75-5.7Q7.45-7.35 7.9-10.05L7.9-10.05Q4.1-7.9 4.1-5.95ZM40.5 4.35L41 0.05 68.5 0.05 67.95 4.35 40.5 4.35ZM101.5-37.45L101.5-37.7Q102.55-38.1 104.45-38.1 106.34-38.1 107.84-37.85L107.84-37.85Q106.3-26.35 105.42-17.03 104.55-7.7 104.47-7.2 104.4-6.7 104.4-6.3L104.4-6.3Q104.45-5 105.65-5L105.65-5Q108.65-5 114-11.9L114-11.9Q114.95-9.25 115.09-8.35L115.09-8.35Q112.7-4.55 109.32-2.13 105.95 0.3 102.95 0.3 99.95 0.3 98.8-1.25 97.65-2.8 97.65-4.7L97.65-4.7Q97.65-5.15 97.77-6.45 97.9-7.75 99.75-22.65L99.75-22.65 91.55-3.7 87.3-3.7 84.84-22.35 81.34-6.85Q80.5-3.15 78.57-1.4 76.65 0.35 74.34 0.35 72.05 0.35 70.59-1L70.59-1Q69.05-2.45 69.05-5.1L69.05-5.1Q69.05-10.4 77.25-14.15L77.25-14.15Q81.7-35.5 82.05-37.8L82.05-37.8Q83.25-38.1 85.27-38.1 87.3-38.1 88.05-38L88.05-38 88.4-38 91.5-14.75 101.5-37.45ZM72.59-5.95L72.59-5.95Q72.59-4.35 73.84-4.35L73.84-4.35Q74.7-4.35 75.25-5.7L75.25-5.7Q75.95-7.35 76.4-10.05L76.4-10.05Q72.59-7.9 72.59-5.95Z" opacity="1" transform="matrix(1,0,0,1,0,0)" fill="#1dc379" class="undefined-text-0" data-fill-palette-color="primary" id="SvgjsPath1518" stroke-width="15" stroke="black" stroke-linejoin="round"></path></svg></g></svg></g><g transform="matrix(1,0,0,1,7.5,164.7938154573462)"><svg viewBox="0 0 301.416 55.664031292294425" height="55.664031292294425" width="301.416"><g transform="matrix(1,0,0,1,0,0)"><svg width="301.416" viewBox="-5.139999866485596 -44.040000915527344 329.280029296875 61.630001068115234" height="55.664031292294425" data-palette-color="#3d9970"><path d="M22.09 0L2.88-32.4 14.36-32.4 23.05-17.99 29.88-29.71 29.88-13.4 22.09 0ZM42.26 0L31.47 0 31.47-32.4 42.26-32.4 42.26 0ZM12.94 0L2.86 0 2.86-29.39 12.94-12.48 12.94 0ZM47.68 0L47.68-25.93 58.49-25.93 58.49 0 47.68 0ZM47.68-29.15L47.68-36.04 58.49-36.04 58.49-29.15 47.68-29.15ZM87.69-6.47L87.69 0 72.6 0 78.34-6.47 87.69-6.47ZM63.62-19.46L63.62-25.93 78.19-25.93 72.6-19.46 63.62-19.46ZM63.37 0L63.37-6.27 80.22-25.93 87.67-25.93 87.67-19.46 70.6 0 63.37 0ZM103-25.93L103 0 98.67 0 92.2-6.47 92.2-19.46 98.67-25.93 103-25.93ZM120.33-10.4L104.7-10.4 104.7-14.92 110.39-14.92 110.39-19.46 104.7-19.46 104.7-25.93 113.86-25.93 120.33-19.46 120.33-10.4ZM115.98 0L104.7 0 104.7-6.05 119.21-6.05 119.21-3.25 115.98 0ZM120.28 9.59L120.28 4.88 156.97 4.88 156.97 9.59 120.28 9.59ZM168.59 0L157.78 0 157.78-25.93 168.59-25.93 168.59 0ZM174.69 0L174.69-19.46 170.3-19.46 170.3-22.51 173.69-25.93 182.04-25.93 185.51-22.46 185.51 0 174.69 0ZM191.61 0L191.61-19.46 187.22-19.46 187.22-22.46 190.54-25.93 197.13-25.93 202.4-20.61 202.4 0 191.61 0ZM224.37-25.93L235.17-25.93 235.17 0 224.37 0 224.37-25.93ZM217.86-25.93L217.86-6.47 222.67-6.47 222.67-3.25 219.54 0 213.56 0 207.07-6.47 207.07-25.93 217.86-25.93ZM240.05-20.12L245.88-25.93 250.2-25.93 250.2-16.77 262.51-16.77 268.12-11.11 268.12-6.05 262.09 0 257.33 0 257.33-9.79 245.66-9.79 240.05-15.19 240.05-20.12ZM250.84-7.42L250.84-4.76 255.62-4.76 255.62 0 244.51-0.02 240.02-5.35 240.02-7.42 250.84-7.42ZM257.33-19.14L257.33-21.17 251.91-21.17 251.91-25.93 263.39-25.93 267.24-22.07 267.24-19.14 257.33-19.14ZM272.37 0L272.37-25.93 283.18-25.93 283.18 0 272.37 0ZM272.37-29.15L272.37-36.04 283.18-36.04 283.18-29.15 272.37-29.15ZM298.85-25.93L298.85 0 294.53 0 288.06-6.47 288.06-19.46 294.53-25.93 298.85-25.93ZM305.35-19.46L300.56-19.46 300.56-25.93 309.67-25.93 316.14-19.46 316.14-15.58 305.35-15.58 305.35-19.46ZM309.67 0L300.56 0 300.56-6.05 305.35-6.05 305.35-9.3 316.14-9.3 316.14-6.47 309.67 0Z" opacity="1" transform="matrix(1,0,0,1,0,0)" fill="#3d9970" class="undefined-text-1" data-fill-palette-color="secondary" id="SvgjsPath1517" stroke-width="15" stroke="black" stroke-linejoin="round"></path></svg></g></svg></g></svg></g></svg></g></svg></g></svg></g></svg></g></mask></svg></g><defs></defs></svg><rect width="395.52" height="247.2" fill="none" stroke="none" visibility="hidden"></rect></g></svg></g></svg>